<?xml version="1.0" encoding="UTF-8" standalone="no"?>
<!-- Created with Inkscape (http://www.inkscape.org/) -->

<svg
   version="1.1"
   id="svg67"
   width="225"
   height="225"
   viewBox="0 0 225 225"
   xmlns="http://www.w3.org/2000/svg"
   xmlns:svg="http://www.w3.org/2000/svg">
  <defs
     id="defs71" />
  <g
     id="g73">
    <g
       id="g1177"
       transform="translate(0.8500407,-5.1172478)">
      <path
         style="fill:#54c1e4"
         d="m 79.75,162.2766 c 1.7875,-0.22182 4.7125,-0.22182 6.5,0 1.7875,0.22183 0.325,0.40333 -3.25,0.40333 -3.575,0 -5.0375,-0.1815 -3.25,-0.40333 z m 33.54159,-0.0191 c 3.73537,-0.19293 9.58537,-0.19149 13,0.003 3.41462,0.19468 0.35841,0.35253 -6.79159,0.35078 -7.15,-0.002 -9.94379,-0.16103 -6.20841,-0.35396 z M 194.38012,154.5 c 4.06143,-10.7647 5.58741,-30.21643 3.3099,-42.1914 -1.8104,-9.51892 -7.72783,-24.917538 -9.44207,-24.570596 -0.64679,0.130902 -0.9508,-0.348788 -0.67559,-1.065977 0.60959,-1.588552 -7.65107,-14.3381 -13.6754,-21.106716 C 162.82461,53.125025 143.41868,41.483545 126,36.832264 c -7.21433,-1.92643 -10.92009,-2.261895 -24.5,-2.217869 -13.890138,0.04503 -17.254244,0.387967 -25.511481,2.600632 -5.231314,1.401819 -12.544776,3.924124 -16.252138,5.605122 -5.747305,2.605952 -6.592525,2.779571 -5.735463,1.178136 0.552857,-1.033022 3.958106,-4.383358 7.567221,-7.44519 C 84.732892,16.901024 111.82365,6.6183435 135.90977,8.335677 c 48.83826,3.482155 84.34583,43.95179 81.74125,93.164323 -0.68613,12.96403 -2.41759,19.99964 -7.71364,31.34352 -3.89496,8.34281 -11.18431,19.48129 -14.53425,22.20904 -1.61204,1.31263 -1.70731,1.26117 -1.02301,-0.55256 z M 53.078947,116.41667 c 0.04798,-1.16495 0.284941,-1.4019 0.604167,-0.60417 0.288871,0.72187 0.253344,1.58437 -0.07895,1.91667 -0.332292,0.33229 -0.568641,-0.25834 -0.52522,-1.3125 z"
         id="path1183" />
      <path
         style="fill:#f9e215"
         d="m 91.871194,222.14581 c -16.759213,-4.66175 -32.55591,-14.76034 -49.438611,-31.60534 -6.63708,-6.62226 -15.63708,-16.83935 -20,-22.70466 C 6.4091768,146.29471 2.9771678,138.36715 2.2329467,121.1769 1.7037579,108.95353 2.9850616,101.81226 7.605971,91.230651 14.298965,75.90409 32.807315,56.532382 48.849044,48.063714 c 2.652721,-1.400411 2.929644,-2.031273 -3.208502,7.30936 -5.271145,8.021288 -8.372389,15.34924 -10.804528,25.5301 -2.706665,11.33002 -2.179984,31.623336 1.11851,43.096826 10.162098,35.34785 38.978047,59.96264 75.167526,64.20864 26.38773,3.09598 55.53823,-6.6987 76.7634,-25.79281 6.10477,-5.49183 6.22226,-4.65707 0.85637,6.08417 -5.69963,11.40929 -12.01048,20.03815 -21.60689,29.54319 -10.95244,10.84816 -21.03832,17.56373 -33.25466,22.14224 -7.59876,2.8479 -9.63923,3.17174 -21.88027,3.47253 -10.81065,0.26564 -14.820533,-0.0356 -20.128806,-1.51215 z"
         id="path1181" />
      <path
         style="fill:#61b12b"
         d="m 107.23204,187.85437 c -8.978711,-1.28748 -21.912657,-5.87381 -30.629083,-10.86097 -7.857078,-4.49547 -19.230254,-14.19384 -24.0403,-20.50014 l -2.811881,-3.68657 3.875885,2.56494 c 6.139696,4.06306 14.620643,6.48496 25.279603,7.21908 l 9.847558,0.67824 8.198283,-10.88447 L 105.15039,141.5 88.325194,141 C 72.176363,140.5201 71.310415,140.38856 66.783886,137.7277 55.188656,130.91163 50.723892,117.35403 56.406753,106.21676 59.395638,100.35914 63.173756,96.718245 69,94.080913 72.93054,92.301698 75.569922,92.041145 89.856989,92.021962 102.51413,92.004968 106.1099,91.717258 105.75383,90.75 c -0.25308,-0.6875 -1.91333,-5.6375 -3.68945,-11 L 98.835072,70 H 87.054026 C 72.871899,70 66.53316,71.094035 58.245806,74.972156 47.617807,79.945597 37.321042,91.772945 33.971429,102.85485 33.417757,104.68662 33.14763,102.88627 33.092959,97 32.954411,82.082935 37.534594,67.485896 46.6615,53.75707 50.966682,47.281151 51.951239,46.430364 58.80439,43.264013 62.906202,41.36886 70.590728,38.659076 75.881115,37.242273 84.257681,34.998968 87.566466,34.659567 101.5,34.614395 c 13.57991,-0.04403 17.28567,0.291439 24.5,2.217869 17.06374,4.556501 36.63353,16.187651 47.41055,28.178076 3.16425,3.520519 3.60493,4.459517 2.30907,4.920255 -0.88081,0.313173 -7.52915,8.580818 -14.77408,18.372546 -7.24492,9.791727 -13.3848,17.590929 -13.64417,17.331559 -0.25937,-0.25936 -3.02078,-8.270778 -6.13647,-17.803137 L 135.5,70.5 124.13001,70.216127 c -9.708,-0.242379 -11.28689,-0.06733 -10.8015,1.197562 C 116.60675,79.956664 130,123.31264 130,125.38185 c 0,3.94635 -2.12484,7.56518 -13.13981,22.37845 -5.4231,7.29317 -9.86019,13.70567 -9.86019,14.25 0,0.59976 4.88875,0.9897 12.40795,0.9897 h 12.40795 l 27.89458,-37.75 c 15.34202,-20.7625 28.32094,-37.693818 28.84205,-37.625152 1.62496,0.214121 7.50422,16.096182 9.13749,24.683752 1.92964,10.14589 1.27187,24.77668 -1.62709,36.1914 -1.87281,7.37426 -2.46506,8.40902 -7.57172,13.2293 -21.45207,20.24903 -52.53846,30.24339 -81.25917,26.12507 z"
         id="path1179" />
    </g>
  </g>
</svg>
